# xmcd
#
# Track frame offsets: 
#        150
#        21702
#        47986
#        71221
#        91221
#        111716
#        122244
#        134596
#        155465
#        175131
#        194923
#        207868
#        225272
#        254914
#        267396
#        281230
#        296774
#        312908
#        334991
#
# Disc length: 4716 seconds
#
# Revision: 0
# Processed by: cddbd v1.5.2PL0 Copyright (c) Steve Scherf et al.
# Submitted via: ExactAudioCopy v1.0b1
#
DISCID=46126a13
DTITLE=Various Artist - A History Of The Blues, Part 2 [CD2]
DYEAR=2010
DGENRE=Blues
TTITLE0=John Lee Hooker - Chill Out (Things Gonna Change) feat. Carlos
TTITLE0=Santana
TTITLE1=Magic Slim - Crazy Woman
TTITLE2=B.B. King - Let The Good Times Roll
TTITLE3=Gary Moore - Oh Pretty Woman (feat. Albert King)
TTITLE4=Cassandra Wilson - Vietnam Blues
TTITLE5=Keb' Mo' - Am I Wrong
TTITLE6=John Lee Hooker - Bottle Up And Go
TTITLE7=Stevie Ray Vaughan and Double Trouble - The Sky Is Crying
TTITLE8=The Jaff Healey Band - Stop Breakin' Down
TTITLE9=Luther Allison - Cherry Red Wine
TTITLE10=Gary Moore - Since I Met You Baby (feat. B.B. King)
TTITLE11=Robben Ford - Up Zhe Line
TTITLE12=uddy Guy - Are You Losing Your Mind
TTITLE13=Johnny Winter - Dallas
TTITLE14=Albert Collins - Frosty
TTITLE15=Smokin' Joe Kubek and Bnois King - I Saw It Coming
TTITLE16=John Mayall's Bluesbreakers - All Your Love
TTITLE17=The Jeff Beck Group - Ain't Superstitious
TTITLE18=Stephen Still - Sweet Home Chicago
EXTD=
EXTT0=
EXTT1=
EXTT2=
EXTT3=
EXTT4=
EXTT5=
EXTT6=
EXTT7=
EXTT8=
EXTT9=
EXTT10=
EXTT11=
EXTT12=
EXTT13=
EXTT14=
EXTT15=
EXTT16=
EXTT17=
EXTT18=
PLAYORDER=
